<svg width="104" height="104" fill="none" xmlns="http://www.w3.org/2000/svg"><path d="M52 0c28.717 0 52 23.283 52 52s-23.283 52-52 52S0 80.717 0 52 23.283 0 52 0ZM38.788 40.75H26.715v35.083h12.068V40.751h.005Zm29.644-.831c-5.737 0-8.636 2.725-10.335 5.009l-.55.784v-4.966H45.474l.043 2.098c.026 2.756.03 7.574.022 12.696l-.065 20.293h12.073V56.238c0-1.049.078-2.097.398-2.847.876-2.093 2.86-4.264 6.197-4.264 4.138 0 5.924 2.886 6.101 7.202l.013.728v18.776h12.077v-20.12c0-10.776-5.958-15.794-13.901-15.794ZM32.829 23.833c-4.13 0-6.829 2.622-6.829 6.063 0 3.163 2.323 5.741 5.971 6.032l.78.026c4.208 0 6.834-2.691 6.834-6.058-.082-3.441-2.622-6.063-6.756-6.063Z" fill="#fff"/></svg>