<svg width="165" height="158" fill="none" xmlns="http://www.w3.org/2000/svg"><path d="M82.5.458A81.221 81.221 0 0 0 .458 80.785a80.477 80.477 0 0 0 56.087 76.298c4.102.746 5.594-1.715 5.594-3.878v-13.649c-22.823 4.848-27.67-10.74-27.67-10.74a21.333 21.333 0 0 0-9.1-11.784c-7.458-4.922.597-4.848.597-4.848a17.231 17.231 0 0 1 12.53 8.279 17.676 17.676 0 0 0 23.866 6.638 17.38 17.38 0 0 1 5.221-10.74c-18.198-2.014-37.291-8.875-37.291-39.678a30.953 30.953 0 0 1 8.279-21.704 28.192 28.192 0 0 1 .82-21.182s6.936-2.163 22.375 8.204a79.656 79.656 0 0 1 41.021 0c15.662-10.367 22.375-8.204 22.375-8.204a28.196 28.196 0 0 1 .82 21.182 30.948 30.948 0 0 1 8.726 21.554c0 30.878-19.242 37.665-37.291 39.679a18.64 18.64 0 0 1 5.593 14.916v22.003c0 2.61 1.492 4.698 5.594 3.878a80.553 80.553 0 0 0 55.938-76.224A81.22 81.22 0 0 0 82.5.458Z" fill="#fff"/></svg>